<svg xmlns="http://www.w3.org/2000/svg" viewBox="0 0 400 400" width="100%" role="img" aria-label="الشكل النهائي: مطعم عصافير بالملاعق">
  <defs>
    <pattern id="bsoil" width="9" height="9" patternUnits="userSpaceOnUse"><circle cx="2" cy="2" r="1.1" fill="#5fb499"/><circle cx="6.5" cy="6" r="1.1" fill="#5fb499"/></pattern>
    <pattern id="bwater" width="10" height="10" patternUnits="userSpaceOnUse" patternTransform="rotate(35)"><line x1="0" y1="0" x2="0" y2="10" stroke="#5fb499" stroke-width="1"/></pattern>
  </defs>
  <rect width="400" height="400" fill="#0b2a23"/>
  <ellipse cx="200" cy="378" rx="110" ry="14" fill="rgba(0,0,0,0.28)"/>
  <g stroke-linecap="round"><path d="M158.5 221 H241.5 V342.4 q0 13.6 -13.6 13.6 H171.1 q-13.6 0 -13.6 -13.6 Z" fill="url(#bsoil)"/><path d="M186.4 56 h27.2 V77 L242.5 110 V342.4 q0 13.6 -13.6 13.6 H171.1 q-13.6 0 -13.6 -13.6 V110 L186.4 77 Z" fill="none" stroke="#a7e8cf" stroke-width="2.2" stroke-linejoin="round"/><line x1="141.5" y1="308" x2="258.5" y2="308" stroke="#a7e8cf" stroke-width="4" stroke-linecap="round"/><ellipse cx="137.5" cy="308" rx="7" ry="4.5" fill="none" stroke="#a7e8cf" stroke-width="1.8"/><line x1="141.5" y1="269.75" x2="258.5" y2="269.75" stroke="#a7e8cf" stroke-width="4" stroke-linecap="round"/><ellipse cx="137.5" cy="269.75" rx="7" ry="4.5" fill="none" stroke="#a7e8cf" stroke-width="1.8"/><path d="M239.5 288 h10 v16 h-10" fill="#0b2a23" stroke="#a7e8cf" stroke-width="1.8"/><path d="M239.5 249.75 h10 v16 h-10" fill="#0b2a23" stroke="#a7e8cf" stroke-width="1.8"/><path d="M200 52 c-16 6 -16 24 0 30" fill="none" stroke="#a7e8cf" stroke-width="2.2"/><path d="M200 52 c16 6 16 24 0 30" fill="none" stroke="#a7e8cf" stroke-width="2.2"/></g>
</svg>