<svg xmlns="http://www.w3.org/2000/svg" viewBox="0 0 400 400" width="100%" role="img" aria-label="الشكل النهائي: منظّم أقلام ومكتب">
  <defs>
    <pattern id="cbsoil" width="9" height="9" patternUnits="userSpaceOnUse"><circle cx="2" cy="2" r="1.1" fill="#5fb499"/><circle cx="6.5" cy="6" r="1.1" fill="#5fb499"/></pattern>
  </defs>
  <rect width="400" height="400" fill="#0b2a23"/>
  <ellipse cx="200" cy="378" rx="110" ry="14" fill="rgba(0,0,0,0.28)"/>
  <g stroke-linecap="round"><path d="M148.67164179104478 56 H251.32835820895525 q8 0 8 8 V348 q0 8 -8 8 H148.67164179104478 q-8 0 -8 -8 V64 q0 -8 8 -8 Z" fill="none" stroke="#a7e8cf" stroke-width="2.2" stroke-linejoin="round"/><line x1="138.67164179104478" y1="56" x2="261.32835820895525" y2="56" stroke="#5fb499" stroke-width="4" stroke-linecap="round"/><line x1="179.23507462686567" y1="62" x2="168.23507462686567" y2="18" stroke="#a7e8cf" stroke-width="3" stroke-linecap="round"/><circle cx="168.23507462686567" cy="18" r="3.2" fill="#a7e8cf"/><line x1="202.07649253731344" y1="62" x2="203.17649253731344" y2="6" stroke="#a7e8cf" stroke-width="3" stroke-linecap="round"/><circle cx="203.17649253731344" cy="6" r="3.2" fill="#a7e8cf"/><line x1="222.84141791044777" y1="62" x2="234.94141791044777" y2="14" stroke="#a7e8cf" stroke-width="3" stroke-linecap="round"/><circle cx="234.94141791044777" cy="14" r="3.2" fill="#a7e8cf"/><rect x="140.67164179104478" y="176" width="118.65671641791046" height="30" fill="url(#cbsoil)" opacity="0.55"/><rect x="140.67164179104478" y="236" width="118.65671641791046" height="30" fill="url(#cbsoil)" opacity="0.55"/></g>
</svg>