<svg xmlns="http://www.w3.org/2000/svg" viewBox="0 0 400 400" width="100%" role="img" aria-label="الشكل النهائي: فانوس علبة بثقوب">
  <defs>
    <pattern id="cbsoil" width="9" height="9" patternUnits="userSpaceOnUse"><circle cx="2" cy="2" r="1.1" fill="#5fb499"/><circle cx="6.5" cy="6" r="1.1" fill="#5fb499"/></pattern>
  </defs>
  <rect width="400" height="400" fill="#0b2a23"/>
  <ellipse cx="200" cy="378" rx="110" ry="14" fill="rgba(0,0,0,0.28)"/>
  <g stroke-linecap="round"><path d="M121.91304347826087 56 H278.0869565217391 q8 0 8 8 V348 q0 8 -8 8 H121.91304347826087 q-8 0 -8 -8 V64 q0 -8 8 -8 Z" fill="none" stroke="#a7e8cf" stroke-width="2.2" stroke-linejoin="round"/><ellipse cx="200" cy="67.2" rx="83.08695652173913" ry="5.6" fill="none" stroke="#a7e8cf" stroke-width="1.6"/><path d="M193 64 q7 -7 14 0" fill="none" stroke="#a7e8cf" stroke-width="1.8"/><rect x="192" y="336" width="16" height="16" rx="2" fill="none" stroke="#a7e8cf" stroke-width="1.6"/><path d="M200 334 v-8" stroke="#ffd98a" stroke-width="2"/><path d="M200 324 q3 -5 0 -8 q-3 3 0 8" fill="#ffd98a"/><circle cx="148.34782608695653" cy="221" r="3.6" fill="none" stroke="#a7e8cf" stroke-width="1.7"/><circle cx="200" cy="221" r="3.6" fill="none" stroke="#a7e8cf" stroke-width="1.7"/><circle cx="251.65217391304347" cy="221" r="3.6" fill="none" stroke="#a7e8cf" stroke-width="1.7"/><rect x="113.91304347826087" y="176" width="172.17391304347825" height="30" fill="url(#cbsoil)" opacity="0.55"/><rect x="113.91304347826087" y="236" width="172.17391304347825" height="30" fill="url(#cbsoil)" opacity="0.55"/></g>
</svg>