<svg xmlns="http://www.w3.org/2000/svg" width="640" height="480" viewBox="0 0 640 480">
  <defs>
    <linearGradient id="g" x1="0" y1="0" x2="0.3" y2="1"><stop offset="0" stop-color="hsl(205 22% 22%)"/><stop offset="1" stop-color="hsl(205 24% 15%)"/></linearGradient>
    <pattern id="soil" width="12" height="12" patternUnits="userSpaceOnUse"><circle cx="3" cy="3" r="1.5" fill="hsl(205 40% 82%)"/><circle cx="9" cy="8" r="1.5" fill="hsl(205 40% 82%)"/></pattern>
  </defs>
  <rect width="640" height="480" fill="url(#g)"/>
  <ellipse cx="320" cy="392" rx="160" ry="24" fill="rgba(0,0,0,0.14)"/>
  <g stroke-linecap="round">
    <path d="M303.36 110 h33.28 v22.5 L372 157.5 v202.5 q0 14 -14 14 h-76 q-14 0 -14 -14 v-202.5 L303.36 132.5 z" fill="none" stroke="hsl(205 40% 82%)" stroke-width="7" stroke-linejoin="round"/>
    <path d="M296 176h48" stroke="hsl(205 40% 82%)" stroke-width="9" stroke-linecap="round"/>
    <g fill="none" stroke="hsl(205 60% 74%)" stroke-width="6"><circle cx="320" cy="140" r="20"/><circle cx="320" cy="140" r="9"/></g>
    <g fill="none" stroke="hsl(205 60% 74%)" stroke-width="5">
      <ellipse cx="320" cy="322" rx="34" ry="10"/><ellipse cx="320" cy="308" rx="34" ry="10"/><ellipse cx="320" cy="294" rx="30" ry="9"/>
    </g></g>
  
</svg>