<svg xmlns="http://www.w3.org/2000/svg" width="400" height="280" viewBox="0 0 400 280">
<defs>
  <marker id="ah" viewBox="0 0 10 10" refX="8" refY="5" markerWidth="7" markerHeight="7" orient="auto-start-reverse">
    <path d="M0 0L10 5L0 10z" fill="#a7e8cf"/>
  </marker>
  <marker id="ahh" viewBox="0 0 10 10" refX="8" refY="5" markerWidth="7" markerHeight="7" orient="auto-start-reverse">
    <path d="M0 0L10 5L0 10z" fill="#ffd98a"/>
  </marker>
  <pattern id="grid" width="20" height="20" patternUnits="userSpaceOnUse">
    <path d="M20 0H0V20" fill="none" stroke="#123f34" stroke-width="1"/>
  </pattern>
  <pattern id="soil" width="9" height="9" patternUnits="userSpaceOnUse">
    <circle cx="2" cy="2" r="1.1" fill="#5fb499"/><circle cx="6.5" cy="6" r="1.1" fill="#5fb499"/>
  </pattern>
  <pattern id="water" width="10" height="10" patternUnits="userSpaceOnUse" patternTransform="rotate(35)">
    <line x1="0" y1="0" x2="0" y2="10" stroke="#5fb499" stroke-width="1"/>
  </pattern>
</defs>
  <rect width="400" height="280" fill="#0b2a23"/>
  <rect width="400" height="280" fill="url(#grid)"/>
  <rect x="8" y="8" width="384" height="264" fill="none" stroke="#5fb499" stroke-width="1.4"/>
  <rect x="8" y="8" width="384" height="18" fill="none" stroke="#5fb499" stroke-width="1"/>
  <text x="384" y="21" font-family="'Segoe UI',Tahoma,Arial,sans-serif" font-size="12" fill="#5fb499" text-anchor="start" direction="rtl">مخطط عمل — Waste 2 Worth</text>

    <g transform="rotate(180 175 150)"><g fill="none" stroke="#a7e8cf" stroke-width="2.4" stroke-linejoin="round">
    <rect x="161.74" y="90" width="26.520000000000003" height="10.5" rx="2"/>
    <line x1="164.74" y1="92" x2="164.74" y2="98.5" stroke="#a7e8cf" stroke-width="1.2"/><line x1="169.87" y1="92" x2="169.87" y2="98.5" stroke="#a7e8cf" stroke-width="1.2"/><line x1="175" y1="92" x2="175" y2="98.5" stroke="#a7e8cf" stroke-width="1.2"/><line x1="180.13000000000002" y1="92" x2="180.13000000000002" y2="98.5" stroke="#a7e8cf" stroke-width="1.2"/><line x1="185.26000000000002" y1="92" x2="185.26000000000002" y2="98.5" stroke="#a7e8cf" stroke-width="1.2"/>
    <path d="M161.74 100.5 v4.5
      C 161.74 114, 136 112.2, 136 123
      v117
      q0 12.48 12.48 12.48
      h53.04
      q12.48 0 12.48 -12.48
      v-117
      C 214 112.2, 188.26 114, 188.26 105
      v-4.5 z"/>
    <path d="M136 130.02 h78" stroke="#5fb499" stroke-width="1.2" stroke-dasharray="3 3"/>
    
  </g></g>
    <path d="M95 150a80 80 0 1 1 30 62" fill="none" stroke="#ffd98a" stroke-width="2.6" marker-end="url(#ahh)"/>
    <g>
    <rect x="80" y="137" width="250" height="26" rx="6" fill="#0b2a23" fill-opacity="0.86" stroke="#ffd98a" stroke-width="1"/>
    <circle cx="322" cy="150" r="3" fill="#ffd98a"/>
    <text x="314" y="155" font-family="'Segoe UI',Tahoma,Arial,sans-serif" font-size="14" fill="#ffd98a" text-anchor="start" direction="rtl">اقلب القنينة رأساً على عقب</text>
  </g>
  
  <g>
    <rect x="14" y="246" width="60" height="22" rx="4" fill="#ffd98a"/>
    <text x="44" y="261" font-family="'Segoe UI',Tahoma,Arial,sans-serif" font-size="13" font-weight="700" fill="#0b2a23" text-anchor="middle">خطوة ٦</text>
    <text x="380" y="261" font-family="'Segoe UI',Tahoma,Arial,sans-serif" font-size="15" fill="#dcf4ea" text-anchor="start" direction="rtl">اقلب الجزء العلوي</text>
  </g>
</svg>